<?xml version="1.0" encoding="utf-8"?>
<!-- Generator: Adobe Illustrator 21.0.2, SVG Export Plug-In . SVG Version: 6.00 Build 0)  -->
<svg version="1.1" id="Capa_1" xmlns="http://www.w3.org/2000/svg" xmlns:xlink="http://www.w3.org/1999/xlink" x="0px" y="0px"
     viewBox="0 0 32 32" style="enable-background:new 0 0 32 32;" xml:space="preserve">
<style type="text/css">
    .st0{fill:#EFEFEF;}
    .st1{fill:#797979;}
    .st2{fill:#9B9B9B;}
    .st3{fill:none;stroke:#494949;stroke-miterlimit:10;}
</style>
<g id="color">
    <path class="st0" d="M21.5,7.5c-1,0-2.7-0.5-5-1.5l-1-0.5l1-0.5c1.3-0.6,3.6-1.5,5-1.5c0.7,0,2,0.4,2,2S22.2,7.5,21.5,7.5z M14.5,6
        l1-0.5l-1-0.5c-2.3-1-4-1.5-5-1.5c-0.7,0-2,0.4-2,2s1.3,2,2,2C11,7.5,13.5,6.4,14.5,6z"/>
    <path class="st1" d="M15.5,28.5c-8.1,0-13-3.1-13-6c0,0,0-0.2,0-0.5l0.1-1.2l0.8,0.9c2,2.3,6.6,3.8,12.1,3.8
        c5.5,0,10.1-1.4,12.1-3.8l0.8-0.9l0.1,1.2c0,0.3,0,0.5,0,0.5C28.5,25.4,23.6,28.5,15.5,28.5z"/>
    <path class="st0" d="M15.5,25.5c-2.9,0-5.4-0.4-7.6-1.1l-0.4-0.1l0-0.4c0.2-2.1,1.2-9.1,7.7-14.1l0.3-0.2l0.3,0.2
        c6.4,5,7.5,12.1,7.7,14.2l0,0.4l-0.4,0.1C20.9,25.1,18.4,25.5,15.5,25.5z"/>
    <path class="st2" d="M23.5,23.6c-0.2-2.4-1.3-8.4-6.8-13.2l-1.2-1L17,9.6c8.4,0.8,10.6,7.9,11.2,10.9l0,0.2l-0.1,0.1
        c-0.6,1.3-2,2.4-4.1,3.3l-0.6,0.3L23.5,23.6z M7.5,24.3l0.1-0.7c0.2-2.4,1.3-8.4,6.8-13.1l1.2-1L14,9.6C5.5,10.3,3.3,17.4,2.7,20.4
        l0,0.2l0.1,0.1c0.6,1.3,2,2.4,4.1,3.3L7.5,24.3z"/>
</g>
<path id="stroke_4_" class="st3" d="M15.5,9.5c11,0,13,10,13,13c0,3-5,6-13,6s-13-3-13-6S4.5,9.5,15.5,9.5z M2.8,20.7
    c1.2,2.5,5.8,4.8,12.7,4.8c7,0,11.7-2.3,12.8-4.9 M15.5,9V6 M15.5,9.5c-8,6-8,15-8,15 M23.5,24.5c0,0,0-9-8-15 M15.5,5.5
    c0,0-4-2-6-2c0,0-2,0-2,2s2,2,2,2C11.5,7.5,15.5,5.5,15.5,5.5z M21.5,7.5c0,0,2,0,2-2s-2-2-2-2c-2,0-6,2-6,2S19.5,7.5,21.5,7.5z"/>
</svg>
